PathFileType	4	(X/Y/Z) flx_0kg_2.trc																										
DataRate	CameraRate	NumFrames	NumMarkers	Units	OrigDataRate	OrigDataStartFrame	OrigNumFrames																					
100	100	25	9	mm	100	213	848																					
Frame#	Time	gu			centelbow			EpL			centpxt8			centijc7			ij			ts			aa			ai		
		X1	Y1	Z1	X2	Y2	Z2	X3	Y3	Z3	X4	Y4	Z4	X5	Y5	Z5	X6	Y6	Z6	X7	Y7	Z7	X8	Y8	Z8	X9	Y9	Z9  
212	2.12	-64.283	27.921	149.583	164.269	-10.298	234.949	159.027	17.737	249.984	-46.816	-153.158	-8.669	-46.816	31.938	-8.669	0	0	0	-147.877	-5.114	68.464	-92.635	46.094	160.935	-132.967	-104.47	121.3
213	2.13	-64.474	28.165	149.503	164.309	-7.551	235.334	158.846	20.578	250.111	-46.816	-153.158	-8.669	-46.816	31.938	-8.669	0	0	0	-147.794	-5.073	68.475	-92.478	46.57	160.659	-132.58	-104.214	121.628
214	2.14	-64.415	28.324	149.226	164.562	-4.935	235.527	158.886	23.291	250.036	-46.816	-153.158	-8.669	-46.816	31.938	-8.669	0	0	0	-147.899	-5.47	68.773	-92.516	46.579	160.688	-132.492	-104.395	122.271
215	2.15	-64.348	28.597	148.753	164.819	-2.077	235.506	158.918	26.243	249.74	-46.816	-153.158	-8.669	-46.816	31.938	-8.669	0	0	0	-148.178	-5.955	69.199	-92.761	46.516	160.853	-132.628	-104.65	123.08
216	2.16	-64.472	29.133	148.201	164.888	1.255	235.385	158.739	29.664	249.334	-46.816	-153.158	-8.669	-46.816	31.938	-8.669	0	0	0	-148.423	-6.135	69.446	-92.999	46.822	160.816	-132.685	-104.566	123.752
217	2.17	-64.932	29.703	147.707	164.6	4.648	235.296	158.197	33.136	248.965	-46.816	-153.158	-8.669	-46.816	31.938	-8.669	0	0	0	-148.401	-5.956	69.364	-92.979	47.547	160.417	-132.396	-104.097	124.116
218	2.18	-65.564	29.891	147.375	164.072	7.428	235.391	157.429	35.981	248.808	-46.816	-153.158	-8.669	-46.816	31.938	-8.669	0	0	0	-148.199	-5.772	69.171	-92.77	48.272	159.899	-131.922	-103.621	124.364
219	2.19	-66.063	29.79	147.216	163.59	9.739	235.77	156.71	38.345	248.954	-46.816	-153.158	-8.669	-46.816	31.938	-8.669	0	0	0	-148.171	-5.875	69.107	-92.713	48.664	159.521	-131.695	-103.446	124.731
220	2.2	-66.395	29.967	147.093	163.22	12.466	236.282	156.084	41.121	249.221	-46.816	-153.158	-8.669	-46.816	31.938	-8.669	0	0	0	-148.457	-6.11	69.123	-92.956	48.907	159.22	-131.822	-103.403	125.184
221	2.21	-66.75	30.627	146.795	162.835	15.951	236.571	155.421	44.657	249.238	-46.816	-153.158	-8.669	-46.816	31.938	-8.669	0	0	0	-148.847	-6.244	69.142	-93.324	49.279	158.915	-132.036	-103.242	125.662
222	2.22	-67.224	31.488	146.275	162.375	19.779	236.451	154.682	48.535	248.836	-46.816	-153.158	-8.669	-46.816	31.938	-8.669	0	0	0	-149.118	-6.355	69.279	-93.621	49.69	158.743	-132.134	-103.049	126.265
223	2.23	-67.672	32.361	145.682	161.978	23.629	236.065	154.009	52.423	248.183	-46.816	-153.158	-8.669	-46.816	31.938	-8.669	0	0	0	-149.222	-6.577	69.51	-93.781	49.966	158.695	-132.088	-102.977	126.946
224	2.24	-67.92	33.175	145.126	161.785	27.37	235.604	153.544	56.189	247.476	-46.816	-153.158	-8.669	-46.816	31.938	-8.669	0	0	0	-149.236	-6.811	69.547	-93.839	50.215	158.452	-131.936	-102.927	127.41
225	2.25	-68.054	33.792	144.56	161.68	30.805	235.101	153.175	59.643	246.74	-46.816	-153.158	-8.669	-46.816	31.938	-8.669	0	0	0	-149.306	-6.908	69.303	-93.927	50.63	157.888	-131.778	-102.722	127.596
226	2.26	-68.319	34.167	143.992	161.373	33.881	234.688	152.612	62.736	246.093	-46.816	-153.158	-8.669	-46.816	31.938	-8.669	0	0	0	-149.468	-6.938	69.071	-94.107	51.158	157.302	-131.675	-102.422	127.823
227	2.27	-68.748	34.471	143.606	160.783	36.904	234.679	151.753	65.772	245.838	-46.816	-153.158	-8.669	-46.816	31.938	-8.669	0	0	0	-149.569	-6.997	69.038	-94.254	51.69	156.907	-131.517	-102.126	128.285
228	2.28	-69.157	34.888	143.46	160.107	40.166	235.082	150.782	69.037	245.988	-46.816	-153.158	-8.669	-46.816	31.938	-8.669	0	0	0	-149.499	-6.985	69.044	-94.255	52.312	156.547	-131.195	-101.743	128.806
229	2.29	-69.479	35.394	143.207	159.5	43.546	235.328	149.876	72.41	245.992	-46.816	-153.158	-8.669	-46.816	31.938	-8.669	0	0	0	-149.384	-6.897	68.875	-94.213	53.002	156.013	-130.838	-101.284	129.149
230	2.3	-69.782	35.936	142.475	158.959	46.861	234.902	149.048	75.705	245.352	-46.816	-153.158	-8.669	-46.816	31.938	-8.669	0	0	0	-149.444	-6.927	68.528	-94.32	53.53	155.31	-130.697	-100.959	129.291
231	2.31	-70.134	36.485	141.502	158.379	50.039	234.143	148.193	78.854	244.408	-46.816	-153.158	-8.669	-46.816	31.938	-8.669	0	0	0	-149.728	-7.104	68.176	-94.628	53.861	154.617	-130.838	-100.802	129.408
232	2.32	-70.575	36.926	140.871	157.658	52.981	233.805	147.205	81.763	243.892	-46.816	-153.158	-8.669	-46.816	31.938	-8.669	0	0	0	-150.064	-7.303	67.965	-94.995	54.153	154.077	-131.07	-100.67	129.67
233	2.33	-71.009	37.293	140.618	156.886	55.842	233.914	146.165	84.59	243.818	-46.816	-153.158	-8.669	-46.816	31.938	-8.669	0	0	0	-150.3	-7.492	67.899	-95.286	54.468	153.685	-131.208	-100.516	130.089
234	2.34	-71.363	37.838	140.236	156.171	59.033	233.848	145.166	87.736	243.565	-46.816	-153.158	-8.669	-46.816	31.938	-8.669	0	0	0	-150.484	-7.656	67.878	-95.554	54.835	153.331	-131.275	-100.32	130.568
235	2.35	-71.725	38.651	139.544	155.419	62.603	233.441	144.115	91.252	242.974	-46.816	-153.158	-8.669	-46.816	31.938	-8.669	0	0	0	-150.711	-7.706	67.848	-95.886	55.351	152.953	-131.364	-99.985	131.061
236	2.36	-72.062	39.414	138.902	154.627	66.014	233.182	143.032	94.606	242.535	-46.816	-153.158	-8.669	-46.816	31.938	-8.669	0	0	0	-150.878	-7.618	67.86	-96.169	56.021	152.607	-131.401	-99.495	131.616
